<svg width="32" height="32" viewBox="0 0 32 32" fill="none" xmlns="http://www.w3.org/2000/svg">
<path d="M14.5455 13.1859C14.5455 9.02656 11.123 5.65757 6.98409 5.82135C3.2103 5.97007 0.152555 9.06897 0.00572902 12.8935C-0.155949 17.088 3.16826 20.5563 7.27261 20.5563L7.29829 20.5563C8.6222 20.551 9.58968 21.8342 9.1925 23.1146C8.92857 23.965 8.59035 24.7905 8.18174 25.5816C8.09899 25.7072 8.09899 25.8746 8.14036 26.0005C8.18174 26.0841 8.26427 26.1679 8.34701 26.1679C8.47092 26.2097 8.59482 26.1679 8.7601 26.0423C10.4958 24.5346 11.9833 22.5664 12.9752 20.3887C13.8841 18.3786 14.4213 16.243 14.5041 13.9815C14.5446 13.7303 14.5446 13.4371 14.5446 13.1859L14.5455 13.1859Z" fill="#F5F4F5"/>
<path d="M32 13.1859C32 9.02656 28.5775 5.65757 24.4384 5.82135C20.665 5.97007 17.6071 9.06897 17.4602 12.8935C17.2985 17.088 20.6228 20.5563 24.7269 20.5563L24.7528 20.5563C26.0767 20.551 27.0442 21.8342 26.647 23.1146C26.3831 23.965 26.0448 24.7905 25.6362 25.5816C25.5535 25.7072 25.5535 25.8746 25.5949 26.0005C25.6362 26.0841 25.7188 26.1679 25.8015 26.1679C25.9254 26.2097 26.0493 26.1679 26.2146 26.0423C27.9501 24.5346 29.4378 22.5664 30.4295 20.3887C31.3386 18.3786 31.8758 16.243 31.9586 13.9815C31.9991 13.7303 31.9991 13.4371 31.9991 13.1859L32 13.1859Z" fill="#F5F4F5"/>
</svg>
