<svg width="68" height="9" viewBox="0 0 68 9" fill="none" xmlns="http://www.w3.org/2000/svg">
<path fill-rule="evenodd" clip-rule="evenodd" d="M11.3283 0H10.7907C10.1987 0 9.68582 0.40794 9.55459 0.983031L8.35186 6.25198L7.29906 1.33353C7.10433 0.424507 6.16834 -0.188506 5.21057 0.0751078C4.60049 0.242996 4.1482 0.7566 4.01628 1.3733L2.97425 6.24539L1.77368 0.983398C1.64214 0.408307 1.12925 0 0.537277 0H0L2.01498 8.82885H2.7784C3.47125 8.82885 4.06987 8.34621 4.21435 7.67097L5.50251 1.64722C5.5184 1.57248 5.58563 1.51836 5.66211 1.51836C5.73859 1.51836 5.80587 1.57248 5.82176 1.64722L7.11097 7.67134C7.25548 8.34658 7.85408 8.82885 8.54691 8.82885H9.31293L11.3283 0ZM12.4355 8.82932V0.903219C12.4355 0.404339 12.8412 8.1097e-05 13.342 8.1097e-05H13.9461V7.92618C13.9461 8.42508 13.5404 8.82932 13.0397 8.82932H12.4355ZM21.6201 8.1097e-05H22.8843L19.8727 4.42704L22.8676 8.82932H21.6035C21.2528 8.82932 20.9247 8.65627 20.7281 8.36688L19.0542 5.90636C19.0091 5.84046 18.9116 5.84046 18.8665 5.90636L17.1926 8.36688C16.9956 8.65627 16.6679 8.82932 16.3172 8.82932H15.0531L18.048 4.42704L15.0365 8.1097e-05H16.3006C16.6512 8.1097e-05 16.9794 0.173124 17.176 0.462511L18.8665 2.94771C18.9116 3.01361 19.0091 3.01361 19.0542 2.94771L20.7447 0.462511C20.9417 0.173124 21.2695 8.1097e-05 21.6201 8.1097e-05ZM25.6733 6.71883L24.9967 7.35984C25.4557 7.8505 25.982 8.23434 26.5755 8.51129C27.1769 8.78829 27.8575 8.9268 28.6172 8.9268C29.2741 8.9268 29.8518 8.81997 30.3503 8.60626C30.8489 8.38469 31.2367 8.08398 31.5137 7.70408C31.7986 7.31631 31.941 6.86918 31.941 6.36274C31.941 5.9037 31.8302 5.512 31.6087 5.18752C31.395 4.86306 31.0468 4.59795 30.564 4.39219C30.0813 4.17852 29.4363 4.01233 28.6291 3.89362C27.7823 3.767 27.1849 3.59685 26.8366 3.38318C26.4884 3.16951 26.3143 2.87274 26.3143 2.49288C26.3143 2.00223 26.5201 1.61445 26.9316 1.32955C27.3431 1.03675 27.8733 0.890341 28.5223 0.890341C29.1316 0.890341 29.6381 1.01301 30.0417 1.25833C30.4532 1.50366 30.8291 1.83604 31.1695 2.25547L31.8342 1.62632C31.4148 1.13567 30.932 0.751849 30.3859 0.474868C29.8478 0.197886 29.2266 0.0593952 28.5223 0.0593952C27.905 0.0593952 27.3589 0.162274 26.8841 0.368032C26.4093 0.573788 26.0374 0.862646 25.7683 1.23459C25.4992 1.59862 25.3647 2.02201 25.3647 2.50475C25.3647 2.91627 25.4676 3.26843 25.6733 3.56124C25.8791 3.85405 26.2115 4.09938 26.6704 4.29722C27.1373 4.48715 27.7586 4.64147 28.5341 4.76018C29.4284 4.89471 30.0615 5.0886 30.4335 5.34182C30.8054 5.58715 30.9914 5.93139 30.9914 6.37459C30.9914 6.72281 30.8885 7.02746 30.6827 7.28862C30.477 7.54187 30.1961 7.73969 29.8399 7.88218C29.4838 8.02461 29.0762 8.09583 28.6172 8.09583C28 8.09583 27.446 7.97317 26.9553 7.72784C26.4726 7.48251 26.0453 7.14619 25.6733 6.71883ZM35.4988 8.73685H36.4128V1.0684H39.2381V0.249326H32.6736V1.0684H35.4988V8.73685ZM46.9896 0.249326V5.38934C46.9896 6.50517 46.6889 7.37568 46.0874 8.00086C45.486 8.61817 44.655 8.9268 43.5946 8.9268C42.5421 8.9268 41.7111 8.61817 41.1017 8.00086C40.5003 7.37568 40.1996 6.50517 40.1996 5.38934V0.249326H41.1136V5.38934C41.1136 6.26776 41.3312 6.9404 41.7665 7.40736C42.2017 7.86634 42.8111 8.09583 43.5946 8.09583C44.386 8.09583 44.9993 7.86634 45.4345 7.40736C45.8698 6.9404 46.0874 6.26776 46.0874 5.38934V0.249326H46.9896ZM48.529 0.249326V8.73685H51.2711C52.1416 8.73685 52.9055 8.55482 53.5619 8.19081C54.2268 7.82675 54.745 7.32423 55.117 6.68322C55.489 6.0422 55.6751 5.31019 55.6751 4.48715C55.6751 3.66412 55.489 2.93605 55.117 2.30295C54.745 1.66193 54.2268 1.15941 53.5619 0.795377C52.9055 0.431343 52.1416 0.249326 51.2711 0.249326H48.529ZM51.2711 7.90588H49.443V1.08027H51.2711C51.9754 1.08027 52.5848 1.22272 53.099 1.50761C53.6214 1.79251 54.0211 2.19216 54.298 2.70655C54.5829 3.21303 54.7253 3.80657 54.7253 4.48715C54.7253 5.16774 54.5829 5.76525 54.298 6.27962C54.0211 6.79403 53.6214 7.19365 53.099 7.47857C52.5848 7.76345 51.9754 7.90588 51.2711 7.90588ZM57.8855 8.73685H56.9713V0.249326H57.8855V8.73685ZM61.8391 8.59441C62.3775 8.81598 62.9632 8.9268 63.5962 8.9268C64.2292 8.9268 64.8112 8.81598 65.341 8.59441C65.8794 8.37284 66.3461 8.06416 66.742 7.66847C67.1454 7.26487 67.4542 6.79403 67.6678 6.25586C67.8895 5.70982 68 5.12026 68 4.48715C68 3.85405 67.8895 3.26843 67.6678 2.73029C67.4542 2.19216 67.1454 1.72524 66.742 1.32955C66.3461 0.925955 65.8794 0.613362 65.341 0.391774C64.8112 0.170188 64.2292 0.0593952 63.5962 0.0593952C62.9632 0.0593952 62.3775 0.170188 61.8391 0.391774C61.3093 0.613362 60.8421 0.925955 60.4387 1.32955C60.0427 1.72524 59.7345 2.19216 59.5129 2.73029C59.2992 3.26843 59.1924 3.85405 59.1924 4.48715C59.1924 5.12026 59.2992 5.70982 59.5129 6.25586C59.7345 6.79403 60.0427 7.26487 60.4387 7.66847C60.8421 8.06416 61.3093 8.37284 61.8391 8.59441ZM65.3889 7.63286C64.8744 7.94149 64.277 8.09583 63.5962 8.09583C62.9234 8.09583 62.326 7.94149 61.8035 7.63286C61.2816 7.32423 60.874 6.89687 60.5811 6.35083C60.2883 5.80479 60.1416 5.18357 60.1416 4.48715C60.1416 3.79074 60.2883 3.17347 60.5811 2.63533C60.874 2.08928 61.2816 1.66193 61.8035 1.35329C62.326 1.04466 62.9234 0.890341 63.5962 0.890341C64.277 0.890341 64.8744 1.04466 65.3889 1.35329C65.9108 1.66193 66.3184 2.08928 66.6113 2.63533C66.9041 3.17347 67.0508 3.79074 67.0508 4.48715C67.0508 5.18357 66.9041 5.80479 66.6113 6.35083C66.3184 6.89687 65.9108 7.32423 65.3889 7.63286Z" fill="black"/>
</svg>
